<svg height="512" viewBox="0 0 58 58" width="512" xmlns="http://www.w3.org/2000/svg"><g id="Page-1" fill="none" fill-rule="evenodd"><g id="049---Contacts" fill-rule="nonzero"><path id="Shape" d="m6 15v-11c-.00029188-1.06095541.42104175-2.07854066 1.17125054-2.82874946.7502088-.75020879 1.76779405-1.17154242 2.82874946-1.17125054h44c1.0609554-.00029188 2.0785407.42104175 2.8287495 1.17125054.7502088.7502088 1.1715424 1.76779405 1.1712505 2.82874946v50c.0002919 1.0609554-.4210417 2.0785407-1.1712505 2.8287495s-1.7677941 1.1715424-2.8287495 1.1712505h-44c-1.06095541.0002919-2.07854066-.4210417-2.82874946-1.1712505-.75020879-.7502088-1.17154242-1.7677941-1.17125054-2.8287495z" fill="#65ddb9"/><path id="Shape" d="m16-.00000015v58.00000035l-6-.0000002c-1.06095541.0002919-2.07854066-.4210417-2.82874946-1.1712505-.75020879-.7502088-1.17154242-1.7677941-1.17125054-2.8287495v-50c-.00029188-1.06095541.42104175-2.07854066 1.17125054-2.82874946.7502088-.75020879 1.76779405-1.17154242 2.82874946-1.17125054z" fill="#46b29d"/><g fill="#bdc3c7"><path id="Shape" d="m12 7c-.0024782 1.65582667-1.3441733 2.99752183-3 3h-6c-.795975.0010634-1.55965477-.31466559-2.12249459-.87750541s-.87856884-1.32651959-.87750541-2.12249459c-.00202922-.34156825.0589926-.68057834.18-1 .14211545-.42313666.38192775-.80683633.7-1.12.56160105-.5634695 1.3244539-.8801254 2.12-.88h6c1.2713341-.00611673 2.40537.79816403 2.82 2 .1210074.31942166.1820292.65843175.18 1z"/><path id="Shape" d="m12 18c-.0024782 1.6558267-1.3441733 2.9975218-3 3h-6c-.795975.0010634-1.55965477-.3146656-2.12249459-.8775054s-.87856884-1.3265196-.87750541-2.1224946c-.00202922-.3415683.0589926-.6805783.18-1 .14211545-.4231367.38192775-.8068363.7-1.12.56160105-.5634695 1.3244539-.8801254 2.12-.88h6c1.2713341-.0061167 2.40537.798164 2.82 2 .1210074.3194217.1820292.6584317.18 1z"/><path id="Shape" d="m12 29c-.0024782 1.6558267-1.3441733 2.9975218-3 3h-6c-.795975.0010634-1.55965477-.3146656-2.12249459-.8775054s-.87856884-1.3265196-.87750541-2.1224946c-.00202922-.3415683.0589926-.6805783.18-1 .14211545-.4231367.38192775-.8068363.7-1.12.56160105-.5634695 1.3244539-.8801254 2.12-.88h6c1.2713341-.0061167 2.40537.798164 2.82 2 .1210074.3194217.1820292.6584317.18 1z"/><path id="Shape" d="m12 40c-.0024782 1.6558267-1.3441733 2.9975218-3 3h-6c-.795975.0010634-1.55965477-.3146656-2.12249459-.8775054s-.87856884-1.3265196-.87750541-2.1224946c-.00202922-.3415683.0589926-.6805783.18-1 .14211545-.4231367.38192775-.8068363.7-1.12.56160105-.5634695 1.3244539-.8801254 2.12-.88h6c1.2713341-.0061167 2.40537.798164 2.82 2 .1210074.3194217.1820292.6584317.18 1z"/><path id="Shape" d="m12 51c-.0024782 1.6558267-1.3441733 2.9975218-3 3h-6c-.795975.0010634-1.55965477-.3146656-2.12249459-.8775054s-.87856884-1.3265196-.87750541-2.1224946c-.00202922-.3415683.0589926-.6805783.18-1 .14211545-.4231367.38192775-.8068363.7-1.12.56160105-.5634695 1.3244539-.8801254 2.12-.88h6c1.2713341-.0061167 2.40537.798164 2.82 2 .1210074.3194217.1820292.6584317.18 1z"/></g><path id="Shape" d="m11.82 6c-.1421155.42313666-.3819277.80683633-.7 1.12-.561601.5634695-1.3244539.8801254-2.12.88h-6c-1.27133409.00611673-2.40536996-.79816403-2.82-2 .14211545-.42313666.38192775-.80683633.7-1.12.56160105-.5634695 1.3244539-.8801254 2.12-.88h6c1.2713341-.00611673 2.40537.79816403 2.82 2z" fill="#ecf0f1"/><path id="Shape" d="m11.82 17c-.1421155.4231367-.3819277.8068363-.7 1.12-.561601.5634695-1.3244539.8801254-2.12.88h-6c-1.27133409.0061167-2.40536996-.798164-2.82-2 .14211545-.4231367.38192775-.8068363.7-1.12.56160105-.5634695 1.3244539-.8801254 2.12-.88h6c1.2713341-.0061167 2.40537.798164 2.82 2z" fill="#ecf0f1"/><path id="Shape" d="m11.82 28c-.1421155.4231367-.3819277.8068363-.7 1.12-.561601.5634695-1.3244539.8801254-2.12.88h-6c-1.27133409.0061167-2.40536996-.798164-2.82-2 .14211545-.4231367.38192775-.8068363.7-1.12.56160105-.5634695 1.3244539-.8801254 2.12-.88h6c1.2713341-.0061167 2.40537.798164 2.82 2z" fill="#ecf0f1"/><path id="Shape" d="m11.82 39c-.1421155.4231367-.3819277.8068363-.7 1.12-.561601.5634695-1.3244539.8801254-2.12.88h-6c-1.27133409.0061167-2.40536996-.798164-2.82-2 .14211545-.4231367.38192775-.8068363.7-1.12.56160105-.5634695 1.3244539-.8801254 2.12-.88h6c1.2713341-.0061167 2.40537.798164 2.82 2z" fill="#ecf0f1"/><path id="Shape" d="m11.82 50c-.1421155.4231367-.3819277.8068363-.7 1.12-.561601.5634695-1.3244539.8801254-2.12.88h-6c-1.27133409.0061167-2.40536996-.798164-2.82-2 .14211545-.4231367.38192775-.8068363.7-1.12.56160105-.5634695 1.3244539-.8801254 2.12-.88h6c1.2713341-.0061167 2.40537.798164 2.82 2z" fill="#ecf0f1"/><circle id="Oval" cx="37" cy="29" fill="#ff5364" r="17"/><circle id="Oval" cx="37" cy="24" fill="#fff" r="7"/><path id="Shape" d="m49.52 40.49v.01c-3.2194718 3.5050303-7.7607736 5.5000174-12.52 5.5000174s-9.3005282-1.9949871-12.52-5.5000174v-.01c1.5748972-5.611729 6.6914664-9.490039 12.52-9.490039s10.9451028 3.87831 12.52 9.490039z" fill="#fff"/></g></g></svg>