<svg height="512pt" viewBox="-40 0 512 512" width="512pt" xmlns="http://www.w3.org/2000/svg"><path d="m370.757812 370.757812h44.140626c9.738281-.027343 17.625-7.914062 17.652343-17.65625v-256l-97.101562-97.101562h-194.207031c-9.738282.0273438-17.625 7.917969-17.65625 17.65625v44.136719zm0 0" fill="#b0d3f0"/><path d="m335.449219 0v88.277344c0 4.875 3.953125 8.824218 8.828125 8.824218h88.273437zm0 0" fill="#90bae1"/><path d="m308.964844 441.378906h44.136718c9.742188-.027344 17.628907-7.917968 17.65625-17.65625v-264.824218l-97.101562-97.105469h-194.207031c-9.738281.027343-17.628907 7.917969-17.65625 17.65625v44.136719zm0 0" fill="#955ba5"/><path d="m273.65625 61.792969v88.277343c0 4.875 3.949219 8.828126 8.828125 8.828126h88.273437zm0 0" fill="#894b9d"/><path d="m308.964844 220.691406v273.652344c0 9.75-7.902344 17.65625-17.65625 17.65625h-273.652344c-9.75 0-17.65625-7.90625-17.65625-17.65625v-353.101562c0-9.75 7.90625-17.65625 17.65625-17.65625h194.207031zm0 0" fill="#b0d3f0"/><path d="m211.863281 123.585938v88.277343c0 4.875 3.949219 8.828125 8.828125 8.828125h88.273438zm0 0" fill="#90bae1"/><path d="m150.070312 247.171875c-5.515624.011719-10.449218-3.417969-12.359374-8.589844l-22.511719-68.09375c-.988281-2.996093-.300781-6.292969 1.800781-8.644531 2.101562-2.355469 5.296875-3.40625 8.386719-2.765625 3.089843.644531 5.597656 2.886719 6.585937 5.882813l18.097656 54.847656 18.09375-54.882813c.988282-2.996093 3.5-5.238281 6.585938-5.882812 3.089844-.640625 6.285156.410156 8.386719 2.765625 2.101562 2.351562 2.789062 5.648437 1.800781 8.644531l-22.351562 67.757813c-1.828126 5.355468-6.859376 8.957031-12.515626 8.960937zm0 0" fill="#804169"/><path d="m70.621094 247.171875h-17.65625c-14.625 0-26.480469-11.855469-26.480469-26.480469v-35.3125c0-14.625 11.855469-26.480468 26.480469-26.480468h17.65625c14.625 0 26.480468 11.855468 26.480468 26.480468 0 4.875-3.949218 8.828125-8.824218 8.828125s-8.828125-3.953125-8.828125-8.828125-3.953125-8.828125-8.828125-8.828125h-17.65625c-4.875 0-8.828125 3.953125-8.828125 8.828125v35.3125c0 4.875 3.953125 8.824219 8.828125 8.824219h17.65625c4.875 0 8.828125-3.949219 8.828125-8.824219 0-4.878906 3.953125-8.828125 8.828125-8.828125s8.824218 3.949219 8.824218 8.828125c0 14.625-11.855468 26.480469-26.480468 26.480469zm0 0" fill="#804169"/><g fill="#3d324c"><path d="m264.828125 291.308594h-123.585937c-4.875 0-8.828126-3.949219-8.828126-8.824219 0-4.878906 3.953126-8.828125 8.828126-8.828125h123.585937c4.875 0 8.828125 3.949219 8.828125 8.828125 0 4.875-3.953125 8.824219-8.828125 8.824219zm0 0"/><path d="m167.722656 326.621094h-123.585937c-4.875 0-8.828125-3.953125-8.828125-8.828125s3.953125-8.828125 8.828125-8.828125h123.585937c4.875 0 8.828125 3.953125 8.828125 8.828125s-3.953125 8.828125-8.828125 8.828125zm0 0"/><path d="m264.828125 361.929688h-123.585937c-4.875 0-8.828126-3.949219-8.828126-8.828126 0-4.875 3.953126-8.824218 8.828126-8.824218h123.585937c4.875 0 8.828125 3.949218 8.828125 8.824218 0 4.878907-3.953125 8.828126-8.828125 8.828126zm0 0"/><path d="m167.722656 397.242188h-123.585937c-4.875 0-8.828125-3.953126-8.828125-8.828126s3.953125-8.828124 8.828125-8.828124h123.585937c4.875 0 8.828125 3.953124 8.828125 8.828124s-3.953125 8.828126-8.828125 8.828126zm0 0"/><path d="m264.828125 432.550781h-123.585937c-4.875 0-8.828126-3.953125-8.828126-8.828125s3.953126-8.824218 8.828126-8.824218h123.585937c4.875 0 8.828125 3.949218 8.828125 8.824218s-3.953125 8.828125-8.828125 8.828125zm0 0"/><path d="m167.722656 467.863281h-123.585937c-4.875 0-8.828125-3.953125-8.828125-8.828125s3.953125-8.828125 8.828125-8.828125h123.585937c4.875 0 8.828125 3.953125 8.828125 8.828125s-3.953125 8.828125-8.828125 8.828125zm0 0"/><path d="m105.929688 291.308594h-61.792969c-4.875 0-8.828125-3.949219-8.828125-8.824219 0-4.878906 3.953125-8.828125 8.828125-8.828125h61.792969c4.875 0 8.828124 3.949219 8.828124 8.828125 0 4.875-3.953124 8.824219-8.828124 8.824219zm0 0"/><path d="m264.828125 326.621094h-61.792969c-4.875 0-8.828125-3.953125-8.828125-8.828125s3.953125-8.828125 8.828125-8.828125h61.792969c4.875 0 8.828125 3.953125 8.828125 8.828125s-3.953125 8.828125-8.828125 8.828125zm0 0"/><path d="m105.929688 361.929688h-61.792969c-4.875 0-8.828125-3.949219-8.828125-8.828126 0-4.875 3.953125-8.824218 8.828125-8.824218h61.792969c4.875 0 8.828124 3.949218 8.828124 8.824218 0 4.878907-3.953124 8.828126-8.828124 8.828126zm0 0"/><path d="m264.828125 397.242188h-61.792969c-4.875 0-8.828125-3.953126-8.828125-8.828126s3.953125-8.828124 8.828125-8.828124h61.792969c4.875 0 8.828125 3.953124 8.828125 8.828124s-3.953125 8.828126-8.828125 8.828126zm0 0"/><path d="m105.929688 432.550781h-61.792969c-4.875 0-8.828125-3.953125-8.828125-8.828125s3.953125-8.824218 8.828125-8.824218h61.792969c4.875 0 8.828124 3.949218 8.828124 8.824218s-3.953124 8.828125-8.828124 8.828125zm0 0"/><path d="m264.828125 467.863281h-61.792969c-4.875 0-8.828125-3.953125-8.828125-8.828125s3.953125-8.828125 8.828125-8.828125h61.792969c4.875 0 8.828125 3.953125 8.828125 8.828125s-3.953125 8.828125-8.828125 8.828125zm0 0"/></g></svg>