<svg height="480pt" viewBox="0 0 480 480" width="480pt" xmlns="http://www.w3.org/2000/svg" fill="#929292">
<path d="m256 360c0 8.835938-7.164062 16-16 16s-16-7.164062-16-16 7.164062-16 16-16 16 7.164062 16 16zm0 0"/><path d="m176 424v40h-56v16h240v-16h-56v-40h-16v40h-96v-40zm0 0"/><path d="m456 0h-432c-13.25.015625-23.984375 10.75-24 24v360c.015625 13.25 10.75 23.984375 24 24h432c13.25-.015625 23.984375-10.75 24-24v-360c-.015625-13.25-10.75-23.984375-24-24zm8 384c-.003906 4.417969-3.582031 7.996094-8 8h-432c-4.417969-.003906-7.996094-3.582031-8-8v-56h448zm0-72h-448v-288c.003906-4.417969 3.582031-7.996094 8-8h432c4.417969.003906 7.996094 3.582031 8 8zm0 0"/></svg>