<?xml version="1.0" encoding="iso-8859-1"?>
<!-- Generator: Adobe Illustrator 19.0.0, SVG Export Plug-In . SVG Version: 6.00 Build 0)  -->
<svg version="1.1" id="Layer_1" xmlns="http://www.w3.org/2000/svg" xmlns:xlink="http://www.w3.org/1999/xlink" x="0px" y="0px"
	 viewBox="0 0 512 512" style="enable-background:new 0 0 512 512;" xml:space="preserve" fill="#929292">
<g>
	<g>
		<path d="M196.267,76.8h-25.6c-4.713,0-8.533,3.82-8.533,8.533s3.82,8.533,8.533,8.533h25.6c4.713,0,8.533-3.821,8.533-8.533
			S200.979,76.8,196.267,76.8z"/>
	</g>
</g>
<g>
	<g>
		<path d="M152.917,81.92c-0.432-1.034-1.038-1.987-1.792-2.816l-1.28-1.024c-0.476-0.323-0.992-0.581-1.536-0.768
			c-0.509-0.258-1.056-0.431-1.621-0.512c-1.653-0.292-3.356-0.054-4.864,0.683c-1.047,0.406-2.004,1.015-2.816,1.792
			c-1.597,1.61-2.488,3.79-2.475,6.059c-0.037,0.568-0.037,1.138,0,1.707c0.148,0.544,0.378,1.062,0.683,1.536
			c0.185,0.545,0.443,1.061,0.768,1.536c0.317,0.446,0.659,0.873,1.024,1.28c0.812,0.777,1.769,1.386,2.816,1.792
			c1.013,0.478,2.123,0.711,3.243,0.683l1.621-0.171c0.565-0.082,1.112-0.255,1.621-0.512c0.544-0.187,1.06-0.445,1.536-0.768
			l1.28-1.024c1.559-1.635,2.443-3.799,2.475-6.059C153.609,84.161,153.377,82.999,152.917,81.92z"/>
	</g>
</g>
<g>
	<g>
		<path d="M357.717,440.491c-0.391-1.055-1.002-2.015-1.792-2.816c-0.016-0.017-0.033-0.033-0.049-0.049
			c-3.346-3.319-8.749-3.297-12.068,0.049c-0.79,0.801-1.401,1.761-1.792,2.816c-0.437,1.026-0.669,2.128-0.683,3.243
			c-0.013,2.268,0.877,4.448,2.475,6.059c1.635,1.559,3.799,2.443,6.059,2.475c4.713,0,8.533-3.82,8.533-8.533
			C358.387,442.618,358.155,441.517,357.717,440.491z"/>
	</g>
</g>
<g>
	<g>
		<path d="M391.851,440.32c-0.406-1.048-1.015-2.004-1.792-2.816l-1.365-1.024c-0.436-0.338-0.926-0.598-1.451-0.768
			c-0.509-0.258-1.057-0.431-1.621-0.512c-1.103-0.171-2.225-0.171-3.328,0c-0.545,0.146-1.063,0.376-1.536,0.683
			c-0.544,0.187-1.06,0.445-1.536,0.768l-1.28,1.024c-0.017,0.016-0.033,0.033-0.049,0.049c-3.319,3.346-3.297,8.749,0.049,12.068
			c1.61,1.597,3.79,2.488,6.059,2.475l1.621-0.171c0.565-0.082,1.112-0.255,1.621-0.512c0.524-0.17,1.015-0.43,1.451-0.768
			c0.488-0.295,0.946-0.638,1.365-1.024c1.559-1.635,2.443-3.799,2.475-6.059C392.543,442.561,392.31,441.399,391.851,440.32z"/>
	</g>
</g>
<g>
	<g>
		<path d="M355.925,463.275c-0.83-0.752-1.783-1.358-2.816-1.792c-3.178-1.336-6.848-0.629-9.301,1.792
			c-1.628,1.614-2.537,3.816-2.524,6.108c0.027,4.713,3.87,8.511,8.583,8.484c2.293,0.013,4.494-0.896,6.108-2.524
			C359.294,471.996,359.272,466.593,355.925,463.275z"/>
	</g>
</g>
<g>
	<g>
		<path d="M390.059,463.275c-0.42-0.386-0.877-0.729-1.365-1.024c-0.436-0.338-0.926-0.598-1.451-0.768
			c-0.509-0.258-1.056-0.431-1.621-0.512c-2.784-0.557-5.663,0.306-7.68,2.304c-0.017,0.016-0.033,0.033-0.049,0.049
			c-3.319,3.346-3.297,8.749,0.049,12.068c1.61,1.597,3.79,2.488,6.059,2.475l1.621-0.171c0.565-0.082,1.112-0.255,1.621-0.512
			c0.524-0.17,1.015-0.43,1.451-0.768c0.488-0.295,0.946-0.638,1.365-1.024c0.017-0.016,0.033-0.033,0.049-0.049
			C393.427,471.996,393.405,466.594,390.059,463.275z"/>
	</g>
</g>
<g>
	<g>
		<path d="M426.667,0H85.333c-14.138,0-25.6,11.461-25.6,25.6v366.933c0,14.138,11.461,25.6,25.6,25.6h341.333
			c14.138,0,25.6-11.462,25.6-25.6V25.6C452.267,11.461,440.805,0,426.667,0z M435.2,392.533c0,4.713-3.82,8.533-8.533,8.533H85.333
			c-4.713,0-8.533-3.821-8.533-8.533V25.6c0-4.713,3.82-8.533,8.533-8.533h341.333c4.713,0,8.533,3.82,8.533,8.533V392.533z"/>
	</g>
</g>
<g>
	<g>
		<path d="M384,42.667H128c-14.138,0-25.6,11.461-25.6,25.6v204.8c0,14.138,11.461,25.6,25.6,25.6h256
			c14.138,0,25.6-11.462,25.6-25.6v-204.8C409.6,54.128,398.138,42.667,384,42.667z M392.533,273.067
			c0,4.713-3.82,8.533-8.533,8.533H128c-4.713,0-8.533-3.821-8.533-8.533v-204.8c0-4.713,3.82-8.533,8.533-8.533h256
			c4.713,0,8.533,3.82,8.533,8.533V273.067z"/>
	</g>
</g>
<g>
	<g>
		<path d="M358.4,332.8H238.933c-4.713,0-8.533,3.821-8.533,8.533s3.82,8.533,8.533,8.533H358.4c4.713,0,8.533-3.82,8.533-8.533
			S363.113,332.8,358.4,332.8z"/>
	</g>
</g>
<g>
	<g>
		<path d="M204.8,332.8H68.267c-4.713,0-8.533,3.821-8.533,8.533s3.82,8.533,8.533,8.533H204.8c4.713,0,8.533-3.82,8.533-8.533
			S209.513,332.8,204.8,332.8z"/>
	</g>
</g>
<g>
	<g>
		<path d="M435.2,332.8h-42.667c-4.713,0-8.533,3.821-8.533,8.533s3.821,8.533,8.533,8.533H435.2c4.713,0,8.533-3.82,8.533-8.533
			S439.913,332.8,435.2,332.8z"/>
	</g>
</g>
<g>
	<g>
		<path d="M418.133,401.067H93.867c-4.713,0-8.533,3.82-8.533,8.533v85.333c0,9.426,7.641,17.067,17.067,17.067h307.2
			c9.426,0,17.067-7.641,17.067-17.067V409.6C426.667,404.887,422.846,401.067,418.133,401.067z M409.6,494.933H102.4v-76.8h307.2
			V494.933z"/>
	</g>
</g>
<g>
	<g>
		<path d="M119.467,366.933H102.4c-4.713,0-8.533,3.82-8.533,8.533S97.687,384,102.4,384h17.067c4.713,0,8.533-3.82,8.533-8.533
			S124.18,366.933,119.467,366.933z"/>
	</g>
</g>
<g>
</g>
<g>
</g>
<g>
</g>
<g>
</g>
<g>
</g>
<g>
</g>
<g>
</g>
<g>
</g>
<g>
</g>
<g>
</g>
<g>
</g>
<g>
</g>
<g>
</g>
<g>
</g>
<g>
</g>
</svg>
