<svg height="512pt" viewBox="-22 0 511 512" width="512pt" xmlns="http://www.w3.org/2000/svg"><path d="m421.070312 27.429688h45.714844v54.855468h-45.714844zm0 0" fill="#dd352e"/><path d="m421.070312 128h45.714844v54.855469h-45.714844zm0 0" fill="#ebba16"/><path d="m411.929688 228.570312h54.855468v54.859376h-54.855468zm0 0" fill="#dc691d"/><path d="m421.070312 329.144531h45.714844v54.855469h-45.714844zm0 0" fill="#61b872"/><path d="m73.644531 0c-40.230469 0-73.144531 32.914062-73.144531 73.144531v368.511719c.109375-.183594.164062-.375.273438-.550781 1.445312-2.320313 3.511718-3.308594 5.625-3.472657 11.199218-26.09375 37.171874-44.488281 67.246093-44.488281h356.570313v-393.144531zm0 0" fill="#366db6"/><path d="m73.644531 365.714844c-40.230469 0-73.144531 32.914062-73.144531 73.140625 0 40.230469 32.914062 73.144531 73.144531 73.144531h356.570313v-146.285156zm0 0" fill="#f2ecbf"/><path d="m73.644531 402.285156c-20.171875 0-36.574219 16.402344-36.574219 36.570313 0 20.171875 16.402344 36.574219 36.574219 36.574219h356.570313v-73.144532zm0 0" fill="#ccc496"/><path d="m64.5.640625c-35.949219 4.542969-64 35.375-64 72.503906v365.710938c0-37.128907 28.050781-68.019531 64-72.566407zm0 0" fill="#2c5f96"/><path d="m.5 135.863281v56.136719c0-37.128906 28.050781-67.957031 64-72.503906v-56.136719c-35.949219 4.542969-64 35.375-64 72.503906zm0 0" fill="#1f436d"/><path d="m.5 282.789062v56.136719c0-37.128906 28.050781-67.957031 64-72.503906v-56.136719c-35.949219 4.542969-64 35.375-64 72.503906zm0 0" fill="#1f436d"/><path d="m430.214844 429.714844h-45.714844c-5.046875 0-9.144531 4.085937-9.144531 9.140625 0 5.058593 4.097656 9.144531 9.144531 9.144531h45.714844zm0 0" fill="#ada477"/><path d="m338.785156 448h-265.140625c-5.046875 0-9.144531-4.085938-9.144531-9.144531 0-5.054688 4.097656-9.140625 9.144531-9.140625h265.140625c5.046875 0 9.144532 4.085937 9.144532 9.140625 0 5.058593-4.097657 9.144531-9.144532 9.144531zm0 0" fill="#ada477"/><path d="m329.632812 178.066406v24.777344c.039063 9.125-7.339843 16.546875-16.484374 16.585938-.519532 0-1.042969-.019532-1.554688-.066407-25.460938-2.761719-49.917969-11.445312-71.40625-25.351562-19.992188-12.679688-36.945312-29.597657-49.644531-49.546875-13.988281-21.539063-22.683594-46.070313-25.398438-71.597656-.824219-9.085938 5.886719-17.113282 14.996094-17.9375.484375-.046876.976563-.074219 1.460937-.074219h24.824219c8.308594-.082031 15.386719 6 16.546875 14.210937 1.050782 7.925782 2.988282 15.714844 5.796875 23.203125 2.277344 6.035157.824219 12.835938-3.722656 17.425781l-10.503906 10.488282c11.777343 20.671875 28.929687 37.796875 49.644531 49.542968l10.507812-10.484374c4.589844-4.535157 11.410157-5.988282 17.460938-3.714844 7.507812 2.800781 15.304688 4.738281 23.25 5.78125 8.320312 1.167968 14.4375 8.375 14.226562 16.757812zm0 0" fill="#fff"/><g fill="#1f436d"><path d="m283.929688 283.429688h-128c-5.046876 0-9.144532-4.089844-9.144532-9.144532 0-5.054687 4.097656-9.140625 9.144532-9.140625h128c5.046874 0 9.140624 4.085938 9.140624 9.140625 0 5.054688-4.09375 9.144532-9.140624 9.144532zm0 0"/><path d="m338.785156 283.429688h-18.285156c-5.046875 0-9.144531-4.089844-9.144531-9.144532 0-5.054687 4.097656-9.140625 9.144531-9.140625h18.285156c5.046875 0 9.144532 4.085938 9.144532 9.140625 0 5.054688-4.097657 9.144532-9.144532 9.144532zm0 0"/><path d="m338.785156 320h-128c-5.046875 0-9.140625-4.085938-9.140625-9.144531 0-5.054688 4.09375-9.140625 9.140625-9.140625h128c5.046875 0 9.144532 4.085937 9.144532 9.140625 0 5.058593-4.097657 9.144531-9.144532 9.144531zm0 0"/><path d="m174.214844 320h-18.285156c-5.046876 0-9.144532-4.085938-9.144532-9.144531 0-5.054688 4.097656-9.140625 9.144532-9.140625h18.285156c5.046875 0 9.140625 4.085937 9.140625 9.140625 0 5.058593-4.09375 9.144531-9.140625 9.144531zm0 0"/></g></svg>