<?xml version="1.0" encoding="iso-8859-1"?>
<!-- Generator: Adobe Illustrator 19.0.0, SVG Export Plug-In . SVG Version: 6.00 Build 0)  -->
<svg version="1.1" id="Capa_1" xmlns="http://www.w3.org/2000/svg" xmlns:xlink="http://www.w3.org/1999/xlink" x="0px" y="0px"
	 viewBox="0 0 512 512" style="enable-background:new 0 0 512 512;" xml:space="preserve">
<g>
	<path style="fill:#35495E;" d="M512,35.31v353.103H0L0,35.31c-0.003-9.366,3.717-18.349,10.339-24.971S25.945-0.003,35.31,0H476.69
		c9.366-0.003,18.349,3.717,24.971,10.339C508.283,16.962,512.003,25.945,512,35.31z"/>
	<path style="fill:#14A085;" d="M397.241,269.241v22.069c-0.029,9.739-7.916,17.627-17.655,17.655H132.414
		c-9.739-0.029-17.627-7.916-17.655-17.655v-87.658c41.843-2.295,84.215,0.618,119.437,23.57
		c12.182,7.945,22.422,18.361,33.986,27.012c6.305,4.786,13.222,8.705,20.568,11.652c20.695,6.681,42.494,9.259,64.177,7.592
		c3.09-0.088,6.268-0.265,9.357-0.441C374.006,272.529,385.683,271.261,397.241,269.241z"/>
	<path style="fill:#46B29D;" d="M397.241,185.379v83.862c-11.558,2.02-23.235,3.288-34.957,3.796
		c-3.09,0.177-6.268,0.353-9.357,0.441c-21.682,1.668-43.482-0.911-64.177-7.592c-7.346-2.948-14.264-6.867-20.568-11.652
		l0.088-0.177C299.895,214.293,346.595,189.425,397.241,185.379z"/>
	<path style="fill:#B0D3F0;" d="M397.241,97.103v88.276c-50.646,4.045-97.346,28.914-128.971,68.679l-0.088,0.177
		c-11.564-8.651-21.804-19.068-33.986-27.012c-35.222-22.952-77.594-25.865-119.437-23.57V97.103
		c0.028-9.739,7.916-17.627,17.655-17.655h247.172C389.325,79.477,397.213,87.365,397.241,97.103z"/>
	<circle style="fill:#F0C419;" cx="176.552" cy="141.241" r="26.483"/>
	<g>
		<circle style="fill:#E6E7E8;" cx="52.966" cy="79.448" r="17.655"/>
		<circle style="fill:#E6E7E8;" cx="52.966" cy="150.069" r="17.655"/>
		<circle style="fill:#E6E7E8;" cx="52.966" cy="220.69" r="17.655"/>
		<circle style="fill:#E6E7E8;" cx="52.966" cy="291.31" r="17.655"/>
	</g>
	<path style="fill:#547580;" d="M459.034,335.448c-2.341,0.001-4.587-0.929-6.243-2.585c-1.656-1.656-2.585-3.901-2.585-6.243
		V52.966c0-4.875,3.952-8.828,8.828-8.828s8.828,3.952,8.828,8.828v273.655c0.001,2.341-0.929,4.587-2.585,6.243
		C463.622,334.519,461.376,335.449,459.034,335.448z"/>
	<path style="fill:#E6E7E8;" d="M441.379,97.103h35.31c4.875,0,8.828,3.952,8.828,8.828v17.655c0,4.875-3.952,8.828-8.828,8.828
		h-35.31c-4.875,0-8.828-3.952-8.828-8.828v-17.655C432.552,101.056,436.504,97.103,441.379,97.103z"/>
	<rect x="185.379" y="406.069" style="fill:#3F5C6C;" width="141.241" height="88.276"/>
	<g>
		<path style="fill:#547580;" d="M512,370.759v35.31c0.003,9.366-3.717,18.348-10.339,24.971
			c-6.623,6.622-15.605,10.342-24.971,10.339H35.31c-9.366,0.003-18.348-3.717-24.971-10.339C3.717,424.417-0.003,415.435,0,406.069
			l0-35.31H512z"/>
		<path style="fill:#547580;" d="M132.414,476.69h247.172c9.751,0,17.655,7.904,17.655,17.655V512H114.759v-17.655
			C114.759,484.594,122.663,476.69,132.414,476.69z"/>
	</g>
</g>
<g>
</g>
<g>
</g>
<g>
</g>
<g>
</g>
<g>
</g>
<g>
</g>
<g>
</g>
<g>
</g>
<g>
</g>
<g>
</g>
<g>
</g>
<g>
</g>
<g>
</g>
<g>
</g>
<g>
</g>
</svg>
